<mxfile host="app.diagrams.net" agent="Mozilla/5.0 (Windows NT 10.0; Win64; x64) AppleWebKit/537.36 (KHTML, like Gecko) Chrome/134.0.0.0 Safari/537.36" version="26.1.1">
  <diagram name="Page-1" id="VX3d0FFvTxOPZbVUAfK0">
    <mxGraphModel dx="1674" dy="738" grid="1" gridSize="10" guides="1" tooltips="1" connect="1" arrows="1" fold="1" page="1" pageScale="1" pageWidth="850" pageHeight="1100" math="0" shadow="0">
      <root>
        <mxCell id="0" />
        <mxCell id="1" parent="0" />
        <mxCell id="N8U11T0DOY2WdUO06s_P-1" value="Documents" style="rounded=0;whiteSpace=wrap;html=1;" parent="1" vertex="1">
          <mxGeometry x="50" y="215" width="70" height="40" as="geometry" />
        </mxCell>
        <mxCell id="N8U11T0DOY2WdUO06s_P-42" style="edgeStyle=orthogonalEdgeStyle;rounded=0;orthogonalLoop=1;jettySize=auto;html=1;exitX=1;exitY=0.5;exitDx=0;exitDy=0;" parent="1" source="N8U11T0DOY2WdUO06s_P-2" target="N8U11T0DOY2WdUO06s_P-4" edge="1">
          <mxGeometry relative="1" as="geometry" />
        </mxCell>
        <mxCell id="N8U11T0DOY2WdUO06s_P-2" value="Chunks" style="rounded=0;whiteSpace=wrap;html=1;" parent="1" vertex="1">
          <mxGeometry x="180" y="60" width="60" height="30" as="geometry" />
        </mxCell>
        <mxCell id="N8U11T0DOY2WdUO06s_P-4" value="Embeddings" style="rounded=0;whiteSpace=wrap;html=1;" parent="1" vertex="1">
          <mxGeometry x="280" y="60" width="75" height="30" as="geometry" />
        </mxCell>
        <mxCell id="N8U11T0DOY2WdUO06s_P-68" style="edgeStyle=orthogonalEdgeStyle;rounded=0;orthogonalLoop=1;jettySize=auto;html=1;entryX=0.5;entryY=0;entryDx=0;entryDy=0;" parent="1" source="N8U11T0DOY2WdUO06s_P-5" target="N8U11T0DOY2WdUO06s_P-66" edge="1">
          <mxGeometry relative="1" as="geometry" />
        </mxCell>
        <mxCell id="N8U11T0DOY2WdUO06s_P-5" value="User" style="ellipse;whiteSpace=wrap;html=1;" parent="1" vertex="1">
          <mxGeometry x="560" y="60" width="60" height="60" as="geometry" />
        </mxCell>
        <mxCell id="N8U11T0DOY2WdUO06s_P-74" style="edgeStyle=orthogonalEdgeStyle;rounded=0;orthogonalLoop=1;jettySize=auto;html=1;entryX=0;entryY=0.5;entryDx=0;entryDy=0;" parent="1" source="N8U11T0DOY2WdUO06s_P-7" target="N8U11T0DOY2WdUO06s_P-73" edge="1">
          <mxGeometry relative="1" as="geometry" />
        </mxCell>
        <mxCell id="N8U11T0DOY2WdUO06s_P-7" value="Vector DB" style="rhombus;whiteSpace=wrap;html=1;" parent="1" vertex="1">
          <mxGeometry x="450" y="320" width="80" height="80" as="geometry" />
        </mxCell>
        <mxCell id="N8U11T0DOY2WdUO06s_P-77" style="edgeStyle=orthogonalEdgeStyle;rounded=0;orthogonalLoop=1;jettySize=auto;html=1;entryX=1;entryY=0.5;entryDx=0;entryDy=0;" parent="1" source="N8U11T0DOY2WdUO06s_P-8" target="N8U11T0DOY2WdUO06s_P-5" edge="1">
          <mxGeometry relative="1" as="geometry">
            <Array as="points">
              <mxPoint x="750" y="90" />
            </Array>
          </mxGeometry>
        </mxCell>
        <mxCell id="N8U11T0DOY2WdUO06s_P-8" value="LLM" style="shape=parallelogram;perimeter=parallelogramPerimeter;whiteSpace=wrap;html=1;fixedSize=1;" parent="1" vertex="1">
          <mxGeometry x="690" y="240" width="120" height="60" as="geometry" />
        </mxCell>
        <mxCell id="N8U11T0DOY2WdUO06s_P-15" value="Retriever" style="text;html=1;align=center;verticalAlign=middle;whiteSpace=wrap;rounded=0;" parent="1" vertex="1">
          <mxGeometry x="510" y="300" width="60" height="30" as="geometry" />
        </mxCell>
        <mxCell id="N8U11T0DOY2WdUO06s_P-16" value="Query response" style="text;html=1;align=center;verticalAlign=middle;whiteSpace=wrap;rounded=0;" parent="1" vertex="1">
          <mxGeometry x="595" y="390" width="60" height="30" as="geometry" />
        </mxCell>
        <mxCell id="N8U11T0DOY2WdUO06s_P-17" value="Augmented response" style="text;html=1;align=center;verticalAlign=middle;whiteSpace=wrap;rounded=0;" parent="1" vertex="1">
          <mxGeometry x="770" y="150" width="60" height="30" as="geometry" />
        </mxCell>
        <mxCell id="N8U11T0DOY2WdUO06s_P-18" value="Synthesis" style="text;html=1;align=center;verticalAlign=middle;whiteSpace=wrap;rounded=0;" parent="1" vertex="1">
          <mxGeometry x="770" y="320" width="60" height="30" as="geometry" />
        </mxCell>
        <mxCell id="N8U11T0DOY2WdUO06s_P-46" style="edgeStyle=orthogonalEdgeStyle;rounded=0;orthogonalLoop=1;jettySize=auto;html=1;" parent="1" source="N8U11T0DOY2WdUO06s_P-28" target="N8U11T0DOY2WdUO06s_P-32" edge="1">
          <mxGeometry relative="1" as="geometry" />
        </mxCell>
        <mxCell id="N8U11T0DOY2WdUO06s_P-28" value="Chunks" style="rounded=0;whiteSpace=wrap;html=1;" parent="1" vertex="1">
          <mxGeometry x="180" y="400" width="60" height="30" as="geometry" />
        </mxCell>
        <mxCell id="N8U11T0DOY2WdUO06s_P-45" style="edgeStyle=orthogonalEdgeStyle;rounded=0;orthogonalLoop=1;jettySize=auto;html=1;" parent="1" source="N8U11T0DOY2WdUO06s_P-29" target="N8U11T0DOY2WdUO06s_P-33" edge="1">
          <mxGeometry relative="1" as="geometry" />
        </mxCell>
        <mxCell id="N8U11T0DOY2WdUO06s_P-29" value="Chunks" style="rounded=0;whiteSpace=wrap;html=1;" parent="1" vertex="1">
          <mxGeometry x="180" y="310" width="60" height="30" as="geometry" />
        </mxCell>
        <mxCell id="N8U11T0DOY2WdUO06s_P-44" style="edgeStyle=orthogonalEdgeStyle;rounded=0;orthogonalLoop=1;jettySize=auto;html=1;" parent="1" source="N8U11T0DOY2WdUO06s_P-30" target="N8U11T0DOY2WdUO06s_P-34" edge="1">
          <mxGeometry relative="1" as="geometry" />
        </mxCell>
        <mxCell id="N8U11T0DOY2WdUO06s_P-30" value="Chunks" style="rounded=0;whiteSpace=wrap;html=1;" parent="1" vertex="1">
          <mxGeometry x="180" y="220" width="60" height="30" as="geometry" />
        </mxCell>
        <mxCell id="N8U11T0DOY2WdUO06s_P-43" style="edgeStyle=orthogonalEdgeStyle;rounded=0;orthogonalLoop=1;jettySize=auto;html=1;" parent="1" source="N8U11T0DOY2WdUO06s_P-31" target="N8U11T0DOY2WdUO06s_P-35" edge="1">
          <mxGeometry relative="1" as="geometry" />
        </mxCell>
        <mxCell id="N8U11T0DOY2WdUO06s_P-31" value="Chunks" style="rounded=0;whiteSpace=wrap;html=1;" parent="1" vertex="1">
          <mxGeometry x="180" y="130" width="60" height="30" as="geometry" />
        </mxCell>
        <mxCell id="N8U11T0DOY2WdUO06s_P-32" value="Embeddings" style="rounded=0;whiteSpace=wrap;html=1;" parent="1" vertex="1">
          <mxGeometry x="280" y="400" width="75" height="30" as="geometry" />
        </mxCell>
        <mxCell id="N8U11T0DOY2WdUO06s_P-33" value="Embeddings" style="rounded=0;whiteSpace=wrap;html=1;" parent="1" vertex="1">
          <mxGeometry x="280" y="310" width="75" height="30" as="geometry" />
        </mxCell>
        <mxCell id="N8U11T0DOY2WdUO06s_P-34" value="Embeddings" style="rounded=0;whiteSpace=wrap;html=1;" parent="1" vertex="1">
          <mxGeometry x="280" y="220" width="75" height="30" as="geometry" />
        </mxCell>
        <mxCell id="N8U11T0DOY2WdUO06s_P-35" value="Embeddings" style="rounded=0;whiteSpace=wrap;html=1;" parent="1" vertex="1">
          <mxGeometry x="280" y="130" width="75" height="30" as="geometry" />
        </mxCell>
        <mxCell id="N8U11T0DOY2WdUO06s_P-63" style="edgeStyle=orthogonalEdgeStyle;rounded=0;orthogonalLoop=1;jettySize=auto;html=1;entryX=0.5;entryY=0;entryDx=0;entryDy=0;" parent="1" source="N8U11T0DOY2WdUO06s_P-36" target="N8U11T0DOY2WdUO06s_P-7" edge="1">
          <mxGeometry relative="1" as="geometry" />
        </mxCell>
        <mxCell id="N8U11T0DOY2WdUO06s_P-36" value="Vector&lt;div&gt;&amp;nbsp;Indexing&lt;/div&gt;" style="shape=parallelogram;perimeter=parallelogramPerimeter;whiteSpace=wrap;html=1;fixedSize=1;" parent="1" vertex="1">
          <mxGeometry x="445" y="210" width="90" height="50" as="geometry" />
        </mxCell>
        <mxCell id="N8U11T0DOY2WdUO06s_P-52" value="" style="endArrow=classic;html=1;rounded=0;entryX=0;entryY=0.5;entryDx=0;entryDy=0;" parent="1" target="N8U11T0DOY2WdUO06s_P-2" edge="1">
          <mxGeometry width="50" height="50" relative="1" as="geometry">
            <mxPoint x="120" y="230" as="sourcePoint" />
            <mxPoint x="170" y="180" as="targetPoint" />
          </mxGeometry>
        </mxCell>
        <mxCell id="N8U11T0DOY2WdUO06s_P-53" value="" style="endArrow=classic;html=1;rounded=0;entryX=0;entryY=0.5;entryDx=0;entryDy=0;" parent="1" target="N8U11T0DOY2WdUO06s_P-31" edge="1">
          <mxGeometry width="50" height="50" relative="1" as="geometry">
            <mxPoint x="120" y="230" as="sourcePoint" />
            <mxPoint x="170" y="180" as="targetPoint" />
          </mxGeometry>
        </mxCell>
        <mxCell id="N8U11T0DOY2WdUO06s_P-54" value="" style="endArrow=classic;html=1;rounded=0;entryX=0;entryY=0.5;entryDx=0;entryDy=0;" parent="1" target="N8U11T0DOY2WdUO06s_P-30" edge="1">
          <mxGeometry width="50" height="50" relative="1" as="geometry">
            <mxPoint x="120" y="230" as="sourcePoint" />
            <mxPoint x="170" y="180" as="targetPoint" />
          </mxGeometry>
        </mxCell>
        <mxCell id="N8U11T0DOY2WdUO06s_P-55" value="" style="endArrow=classic;html=1;rounded=0;entryX=0;entryY=0.5;entryDx=0;entryDy=0;" parent="1" target="N8U11T0DOY2WdUO06s_P-29" edge="1">
          <mxGeometry width="50" height="50" relative="1" as="geometry">
            <mxPoint x="120" y="230" as="sourcePoint" />
            <mxPoint x="170" y="180" as="targetPoint" />
          </mxGeometry>
        </mxCell>
        <mxCell id="N8U11T0DOY2WdUO06s_P-56" value="" style="endArrow=classic;html=1;rounded=0;entryX=0;entryY=0.5;entryDx=0;entryDy=0;" parent="1" target="N8U11T0DOY2WdUO06s_P-28" edge="1">
          <mxGeometry width="50" height="50" relative="1" as="geometry">
            <mxPoint x="120" y="230" as="sourcePoint" />
            <mxPoint x="170" y="180" as="targetPoint" />
          </mxGeometry>
        </mxCell>
        <mxCell id="N8U11T0DOY2WdUO06s_P-58" value="" style="endArrow=classic;html=1;rounded=0;entryX=0;entryY=0.5;entryDx=0;entryDy=0;exitX=1;exitY=0.5;exitDx=0;exitDy=0;" parent="1" source="N8U11T0DOY2WdUO06s_P-4" target="N8U11T0DOY2WdUO06s_P-36" edge="1">
          <mxGeometry width="50" height="50" relative="1" as="geometry">
            <mxPoint x="390" y="70" as="sourcePoint" />
            <mxPoint x="440" y="20" as="targetPoint" />
          </mxGeometry>
        </mxCell>
        <mxCell id="N8U11T0DOY2WdUO06s_P-59" value="" style="endArrow=classic;html=1;rounded=0;entryX=0;entryY=0.5;entryDx=0;entryDy=0;exitX=1;exitY=0.5;exitDx=0;exitDy=0;" parent="1" source="N8U11T0DOY2WdUO06s_P-32" target="N8U11T0DOY2WdUO06s_P-36" edge="1">
          <mxGeometry width="50" height="50" relative="1" as="geometry">
            <mxPoint x="390" y="420" as="sourcePoint" />
            <mxPoint x="440" y="370" as="targetPoint" />
          </mxGeometry>
        </mxCell>
        <mxCell id="N8U11T0DOY2WdUO06s_P-60" value="" style="endArrow=classic;html=1;rounded=0;entryX=0;entryY=0.5;entryDx=0;entryDy=0;exitX=1;exitY=0.5;exitDx=0;exitDy=0;" parent="1" source="N8U11T0DOY2WdUO06s_P-35" target="N8U11T0DOY2WdUO06s_P-36" edge="1">
          <mxGeometry width="50" height="50" relative="1" as="geometry">
            <mxPoint x="390" y="140" as="sourcePoint" />
            <mxPoint x="440" y="90" as="targetPoint" />
          </mxGeometry>
        </mxCell>
        <mxCell id="N8U11T0DOY2WdUO06s_P-61" value="" style="endArrow=classic;html=1;rounded=0;entryX=0;entryY=0.5;entryDx=0;entryDy=0;exitX=1;exitY=0.5;exitDx=0;exitDy=0;" parent="1" source="N8U11T0DOY2WdUO06s_P-33" target="N8U11T0DOY2WdUO06s_P-36" edge="1">
          <mxGeometry width="50" height="50" relative="1" as="geometry">
            <mxPoint x="390" y="330" as="sourcePoint" />
            <mxPoint x="440" y="280" as="targetPoint" />
          </mxGeometry>
        </mxCell>
        <mxCell id="N8U11T0DOY2WdUO06s_P-62" value="" style="endArrow=classic;html=1;rounded=0;entryX=0;entryY=0.5;entryDx=0;entryDy=0;exitX=1;exitY=0.5;exitDx=0;exitDy=0;" parent="1" source="N8U11T0DOY2WdUO06s_P-34" target="N8U11T0DOY2WdUO06s_P-36" edge="1">
          <mxGeometry width="50" height="50" relative="1" as="geometry">
            <mxPoint x="390" y="230" as="sourcePoint" />
            <mxPoint x="440" y="180" as="targetPoint" />
          </mxGeometry>
        </mxCell>
        <mxCell id="N8U11T0DOY2WdUO06s_P-70" style="edgeStyle=orthogonalEdgeStyle;rounded=0;orthogonalLoop=1;jettySize=auto;html=1;entryX=0.5;entryY=0;entryDx=0;entryDy=0;" parent="1" source="N8U11T0DOY2WdUO06s_P-66" target="N8U11T0DOY2WdUO06s_P-67" edge="1">
          <mxGeometry relative="1" as="geometry" />
        </mxCell>
        <mxCell id="N8U11T0DOY2WdUO06s_P-76" style="edgeStyle=orthogonalEdgeStyle;rounded=0;orthogonalLoop=1;jettySize=auto;html=1;" parent="1" source="N8U11T0DOY2WdUO06s_P-66" edge="1">
          <mxGeometry relative="1" as="geometry">
            <mxPoint x="750" y="300" as="targetPoint" />
            <Array as="points">
              <mxPoint x="650" y="195" />
              <mxPoint x="650" y="320" />
              <mxPoint x="750" y="320" />
            </Array>
          </mxGeometry>
        </mxCell>
        <mxCell id="N8U11T0DOY2WdUO06s_P-66" value="Query Embeddings" style="rounded=1;whiteSpace=wrap;html=1;" parent="1" vertex="1">
          <mxGeometry x="555" y="180" width="70" height="30" as="geometry" />
        </mxCell>
        <mxCell id="N8U11T0DOY2WdUO06s_P-67" value="Semantic Search" style="rounded=1;whiteSpace=wrap;html=1;" parent="1" vertex="1">
          <mxGeometry x="555" y="260" width="70" height="30" as="geometry" />
        </mxCell>
        <mxCell id="N8U11T0DOY2WdUO06s_P-69" value="Question" style="text;html=1;align=center;verticalAlign=middle;whiteSpace=wrap;rounded=0;" parent="1" vertex="1">
          <mxGeometry x="590" y="130" width="60" height="30" as="geometry" />
        </mxCell>
        <mxCell id="N8U11T0DOY2WdUO06s_P-72" value="" style="endArrow=classic;html=1;rounded=0;entryX=1;entryY=0.5;entryDx=0;entryDy=0;" parent="1" target="N8U11T0DOY2WdUO06s_P-7" edge="1">
          <mxGeometry width="50" height="50" relative="1" as="geometry">
            <mxPoint x="590" y="290" as="sourcePoint" />
            <mxPoint x="640" y="240" as="targetPoint" />
          </mxGeometry>
        </mxCell>
        <mxCell id="N8U11T0DOY2WdUO06s_P-75" style="edgeStyle=orthogonalEdgeStyle;rounded=0;orthogonalLoop=1;jettySize=auto;html=1;entryX=0.5;entryY=1;entryDx=0;entryDy=0;" parent="1" source="N8U11T0DOY2WdUO06s_P-73" target="N8U11T0DOY2WdUO06s_P-8" edge="1">
          <mxGeometry relative="1" as="geometry" />
        </mxCell>
        <mxCell id="N8U11T0DOY2WdUO06s_P-73" value="Retrieved Result" style="rounded=1;whiteSpace=wrap;html=1;" parent="1" vertex="1">
          <mxGeometry x="590" y="345" width="70" height="30" as="geometry" />
        </mxCell>
        <mxCell id="b5fJu4_bDqjPiBG0xpS5-54" value="Documents" style="rounded=0;whiteSpace=wrap;html=1;" parent="1" vertex="1">
          <mxGeometry x="35" y="825" width="70" height="40" as="geometry" />
        </mxCell>
        <mxCell id="b5fJu4_bDqjPiBG0xpS5-55" style="edgeStyle=orthogonalEdgeStyle;rounded=0;orthogonalLoop=1;jettySize=auto;html=1;exitX=1;exitY=0.5;exitDx=0;exitDy=0;" parent="1" source="b5fJu4_bDqjPiBG0xpS5-56" target="b5fJu4_bDqjPiBG0xpS5-57" edge="1">
          <mxGeometry relative="1" as="geometry" />
        </mxCell>
        <mxCell id="b5fJu4_bDqjPiBG0xpS5-56" value="Chunks" style="rounded=0;whiteSpace=wrap;html=1;" parent="1" vertex="1">
          <mxGeometry x="165" y="670" width="60" height="30" as="geometry" />
        </mxCell>
        <mxCell id="b5fJu4_bDqjPiBG0xpS5-57" value="Embeddings" style="rounded=0;whiteSpace=wrap;html=1;" parent="1" vertex="1">
          <mxGeometry x="265" y="670" width="75" height="30" as="geometry" />
        </mxCell>
        <mxCell id="b5fJu4_bDqjPiBG0xpS5-115" style="edgeStyle=orthogonalEdgeStyle;rounded=0;orthogonalLoop=1;jettySize=auto;html=1;" parent="1" source="b5fJu4_bDqjPiBG0xpS5-59" edge="1">
          <mxGeometry relative="1" as="geometry">
            <mxPoint x="670" y="880" as="targetPoint" />
          </mxGeometry>
        </mxCell>
        <mxCell id="b5fJu4_bDqjPiBG0xpS5-59" value="User" style="ellipse;whiteSpace=wrap;html=1;" parent="1" vertex="1">
          <mxGeometry x="545" y="670" width="60" height="60" as="geometry" />
        </mxCell>
        <mxCell id="b5fJu4_bDqjPiBG0xpS5-112" value="" style="edgeStyle=orthogonalEdgeStyle;rounded=0;orthogonalLoop=1;jettySize=auto;html=1;" parent="1" source="b5fJu4_bDqjPiBG0xpS5-61" edge="1">
          <mxGeometry relative="1" as="geometry">
            <mxPoint x="590" y="970" as="targetPoint" />
          </mxGeometry>
        </mxCell>
        <mxCell id="b5fJu4_bDqjPiBG0xpS5-61" value="Vector DB" style="rhombus;whiteSpace=wrap;html=1;" parent="1" vertex="1">
          <mxGeometry x="435" y="930" width="80" height="80" as="geometry" />
        </mxCell>
        <mxCell id="b5fJu4_bDqjPiBG0xpS5-63" value="LLM" style="shape=parallelogram;perimeter=parallelogramPerimeter;whiteSpace=wrap;html=1;fixedSize=1;" parent="1" vertex="1">
          <mxGeometry x="620" y="950" width="120" height="60" as="geometry" />
        </mxCell>
        <mxCell id="b5fJu4_bDqjPiBG0xpS5-64" value="Retriever" style="text;html=1;align=center;verticalAlign=middle;whiteSpace=wrap;rounded=0;" parent="1" vertex="1">
          <mxGeometry x="635" y="1030" width="60" height="30" as="geometry" />
        </mxCell>
        <mxCell id="b5fJu4_bDqjPiBG0xpS5-65" value="Response" style="text;html=1;align=center;verticalAlign=middle;whiteSpace=wrap;rounded=0;" parent="1" vertex="1">
          <mxGeometry x="700" y="780" width="60" height="30" as="geometry" />
        </mxCell>
        <mxCell id="b5fJu4_bDqjPiBG0xpS5-67" value="Synthesis" style="text;html=1;align=center;verticalAlign=middle;whiteSpace=wrap;rounded=0;" parent="1" vertex="1">
          <mxGeometry x="755" y="930" width="60" height="30" as="geometry" />
        </mxCell>
        <mxCell id="b5fJu4_bDqjPiBG0xpS5-68" style="edgeStyle=orthogonalEdgeStyle;rounded=0;orthogonalLoop=1;jettySize=auto;html=1;" parent="1" source="b5fJu4_bDqjPiBG0xpS5-69" target="b5fJu4_bDqjPiBG0xpS5-76" edge="1">
          <mxGeometry relative="1" as="geometry" />
        </mxCell>
        <mxCell id="b5fJu4_bDqjPiBG0xpS5-69" value="Chunks" style="rounded=0;whiteSpace=wrap;html=1;" parent="1" vertex="1">
          <mxGeometry x="165" y="1010" width="60" height="30" as="geometry" />
        </mxCell>
        <mxCell id="b5fJu4_bDqjPiBG0xpS5-70" style="edgeStyle=orthogonalEdgeStyle;rounded=0;orthogonalLoop=1;jettySize=auto;html=1;" parent="1" source="b5fJu4_bDqjPiBG0xpS5-71" target="b5fJu4_bDqjPiBG0xpS5-77" edge="1">
          <mxGeometry relative="1" as="geometry" />
        </mxCell>
        <mxCell id="b5fJu4_bDqjPiBG0xpS5-71" value="Chunks" style="rounded=0;whiteSpace=wrap;html=1;" parent="1" vertex="1">
          <mxGeometry x="165" y="920" width="60" height="30" as="geometry" />
        </mxCell>
        <mxCell id="b5fJu4_bDqjPiBG0xpS5-72" style="edgeStyle=orthogonalEdgeStyle;rounded=0;orthogonalLoop=1;jettySize=auto;html=1;" parent="1" source="b5fJu4_bDqjPiBG0xpS5-73" target="b5fJu4_bDqjPiBG0xpS5-78" edge="1">
          <mxGeometry relative="1" as="geometry" />
        </mxCell>
        <mxCell id="b5fJu4_bDqjPiBG0xpS5-73" value="Chunks" style="rounded=0;whiteSpace=wrap;html=1;" parent="1" vertex="1">
          <mxGeometry x="165" y="830" width="60" height="30" as="geometry" />
        </mxCell>
        <mxCell id="b5fJu4_bDqjPiBG0xpS5-74" style="edgeStyle=orthogonalEdgeStyle;rounded=0;orthogonalLoop=1;jettySize=auto;html=1;" parent="1" source="b5fJu4_bDqjPiBG0xpS5-75" target="b5fJu4_bDqjPiBG0xpS5-79" edge="1">
          <mxGeometry relative="1" as="geometry" />
        </mxCell>
        <mxCell id="b5fJu4_bDqjPiBG0xpS5-75" value="Chunks" style="rounded=0;whiteSpace=wrap;html=1;" parent="1" vertex="1">
          <mxGeometry x="165" y="740" width="60" height="30" as="geometry" />
        </mxCell>
        <mxCell id="b5fJu4_bDqjPiBG0xpS5-76" value="Embeddings" style="rounded=0;whiteSpace=wrap;html=1;" parent="1" vertex="1">
          <mxGeometry x="265" y="1010" width="75" height="30" as="geometry" />
        </mxCell>
        <mxCell id="b5fJu4_bDqjPiBG0xpS5-77" value="Embeddings" style="rounded=0;whiteSpace=wrap;html=1;" parent="1" vertex="1">
          <mxGeometry x="265" y="920" width="75" height="30" as="geometry" />
        </mxCell>
        <mxCell id="b5fJu4_bDqjPiBG0xpS5-78" value="Embeddings" style="rounded=0;whiteSpace=wrap;html=1;" parent="1" vertex="1">
          <mxGeometry x="265" y="830" width="75" height="30" as="geometry" />
        </mxCell>
        <mxCell id="b5fJu4_bDqjPiBG0xpS5-79" value="Embeddings" style="rounded=0;whiteSpace=wrap;html=1;" parent="1" vertex="1">
          <mxGeometry x="265" y="740" width="75" height="30" as="geometry" />
        </mxCell>
        <mxCell id="b5fJu4_bDqjPiBG0xpS5-80" style="edgeStyle=orthogonalEdgeStyle;rounded=0;orthogonalLoop=1;jettySize=auto;html=1;entryX=0.5;entryY=0;entryDx=0;entryDy=0;" parent="1" source="b5fJu4_bDqjPiBG0xpS5-81" target="b5fJu4_bDqjPiBG0xpS5-61" edge="1">
          <mxGeometry relative="1" as="geometry" />
        </mxCell>
        <mxCell id="b5fJu4_bDqjPiBG0xpS5-81" value="Vector&lt;div&gt;&amp;nbsp;Indexing&lt;/div&gt;" style="shape=parallelogram;perimeter=parallelogramPerimeter;whiteSpace=wrap;html=1;fixedSize=1;" parent="1" vertex="1">
          <mxGeometry x="430" y="820" width="90" height="50" as="geometry" />
        </mxCell>
        <mxCell id="b5fJu4_bDqjPiBG0xpS5-82" value="" style="endArrow=classic;html=1;rounded=0;entryX=0;entryY=0.5;entryDx=0;entryDy=0;" parent="1" target="b5fJu4_bDqjPiBG0xpS5-56" edge="1">
          <mxGeometry width="50" height="50" relative="1" as="geometry">
            <mxPoint x="105" y="840" as="sourcePoint" />
            <mxPoint x="155" y="790" as="targetPoint" />
          </mxGeometry>
        </mxCell>
        <mxCell id="b5fJu4_bDqjPiBG0xpS5-83" value="" style="endArrow=classic;html=1;rounded=0;entryX=0;entryY=0.5;entryDx=0;entryDy=0;" parent="1" target="b5fJu4_bDqjPiBG0xpS5-75" edge="1">
          <mxGeometry width="50" height="50" relative="1" as="geometry">
            <mxPoint x="105" y="840" as="sourcePoint" />
            <mxPoint x="155" y="790" as="targetPoint" />
          </mxGeometry>
        </mxCell>
        <mxCell id="b5fJu4_bDqjPiBG0xpS5-84" value="" style="endArrow=classic;html=1;rounded=0;entryX=0;entryY=0.5;entryDx=0;entryDy=0;" parent="1" target="b5fJu4_bDqjPiBG0xpS5-73" edge="1">
          <mxGeometry width="50" height="50" relative="1" as="geometry">
            <mxPoint x="105" y="840" as="sourcePoint" />
            <mxPoint x="155" y="790" as="targetPoint" />
          </mxGeometry>
        </mxCell>
        <mxCell id="b5fJu4_bDqjPiBG0xpS5-85" value="" style="endArrow=classic;html=1;rounded=0;entryX=0;entryY=0.5;entryDx=0;entryDy=0;" parent="1" target="b5fJu4_bDqjPiBG0xpS5-71" edge="1">
          <mxGeometry width="50" height="50" relative="1" as="geometry">
            <mxPoint x="105" y="840" as="sourcePoint" />
            <mxPoint x="155" y="790" as="targetPoint" />
          </mxGeometry>
        </mxCell>
        <mxCell id="b5fJu4_bDqjPiBG0xpS5-86" value="" style="endArrow=classic;html=1;rounded=0;entryX=0;entryY=0.5;entryDx=0;entryDy=0;" parent="1" target="b5fJu4_bDqjPiBG0xpS5-69" edge="1">
          <mxGeometry width="50" height="50" relative="1" as="geometry">
            <mxPoint x="105" y="840" as="sourcePoint" />
            <mxPoint x="155" y="790" as="targetPoint" />
          </mxGeometry>
        </mxCell>
        <mxCell id="b5fJu4_bDqjPiBG0xpS5-87" value="" style="endArrow=classic;html=1;rounded=0;entryX=0;entryY=0.5;entryDx=0;entryDy=0;exitX=1;exitY=0.5;exitDx=0;exitDy=0;" parent="1" source="b5fJu4_bDqjPiBG0xpS5-57" target="b5fJu4_bDqjPiBG0xpS5-81" edge="1">
          <mxGeometry width="50" height="50" relative="1" as="geometry">
            <mxPoint x="375" y="680" as="sourcePoint" />
            <mxPoint x="425" y="630" as="targetPoint" />
          </mxGeometry>
        </mxCell>
        <mxCell id="b5fJu4_bDqjPiBG0xpS5-88" value="" style="endArrow=classic;html=1;rounded=0;entryX=0;entryY=0.5;entryDx=0;entryDy=0;exitX=1;exitY=0.5;exitDx=0;exitDy=0;" parent="1" source="b5fJu4_bDqjPiBG0xpS5-76" target="b5fJu4_bDqjPiBG0xpS5-81" edge="1">
          <mxGeometry width="50" height="50" relative="1" as="geometry">
            <mxPoint x="375" y="1030" as="sourcePoint" />
            <mxPoint x="425" y="980" as="targetPoint" />
          </mxGeometry>
        </mxCell>
        <mxCell id="b5fJu4_bDqjPiBG0xpS5-89" value="" style="endArrow=classic;html=1;rounded=0;entryX=0;entryY=0.5;entryDx=0;entryDy=0;exitX=1;exitY=0.5;exitDx=0;exitDy=0;" parent="1" source="b5fJu4_bDqjPiBG0xpS5-79" target="b5fJu4_bDqjPiBG0xpS5-81" edge="1">
          <mxGeometry width="50" height="50" relative="1" as="geometry">
            <mxPoint x="375" y="750" as="sourcePoint" />
            <mxPoint x="425" y="700" as="targetPoint" />
          </mxGeometry>
        </mxCell>
        <mxCell id="b5fJu4_bDqjPiBG0xpS5-90" value="" style="endArrow=classic;html=1;rounded=0;entryX=0;entryY=0.5;entryDx=0;entryDy=0;exitX=1;exitY=0.5;exitDx=0;exitDy=0;" parent="1" source="b5fJu4_bDqjPiBG0xpS5-77" target="b5fJu4_bDqjPiBG0xpS5-81" edge="1">
          <mxGeometry width="50" height="50" relative="1" as="geometry">
            <mxPoint x="375" y="940" as="sourcePoint" />
            <mxPoint x="425" y="890" as="targetPoint" />
          </mxGeometry>
        </mxCell>
        <mxCell id="b5fJu4_bDqjPiBG0xpS5-91" value="" style="endArrow=classic;html=1;rounded=0;entryX=0;entryY=0.5;entryDx=0;entryDy=0;exitX=1;exitY=0.5;exitDx=0;exitDy=0;" parent="1" source="b5fJu4_bDqjPiBG0xpS5-78" target="b5fJu4_bDqjPiBG0xpS5-81" edge="1">
          <mxGeometry width="50" height="50" relative="1" as="geometry">
            <mxPoint x="375" y="840" as="sourcePoint" />
            <mxPoint x="425" y="790" as="targetPoint" />
          </mxGeometry>
        </mxCell>
        <mxCell id="b5fJu4_bDqjPiBG0xpS5-94" value="Embeddings model" style="rounded=1;whiteSpace=wrap;html=1;" parent="1" vertex="1">
          <mxGeometry x="670" y="900" width="70" height="30" as="geometry" />
        </mxCell>
        <mxCell id="b5fJu4_bDqjPiBG0xpS5-95" value="Semantic Search" style="rounded=1;whiteSpace=wrap;html=1;" parent="1" vertex="1">
          <mxGeometry x="590" y="790" width="70" height="30" as="geometry" />
        </mxCell>
        <mxCell id="b5fJu4_bDqjPiBG0xpS5-96" value="Query&amp;nbsp;" style="text;html=1;align=center;verticalAlign=middle;whiteSpace=wrap;rounded=0;" parent="1" vertex="1">
          <mxGeometry x="605" y="750" width="60" height="30" as="geometry" />
        </mxCell>
        <mxCell id="b5fJu4_bDqjPiBG0xpS5-100" value="RAG Pipeline" style="text;html=1;align=center;verticalAlign=middle;whiteSpace=wrap;rounded=0;" parent="1" vertex="1">
          <mxGeometry x="400" y="20" width="120" height="30" as="geometry" />
        </mxCell>
        <mxCell id="b5fJu4_bDqjPiBG0xpS5-104" value="" style="endArrow=none;dashed=1;html=1;rounded=0;" parent="1" edge="1">
          <mxGeometry width="50" height="50" relative="1" as="geometry">
            <mxPoint x="589" y="1025" as="sourcePoint" />
            <mxPoint x="589" y="880" as="targetPoint" />
          </mxGeometry>
        </mxCell>
        <mxCell id="b5fJu4_bDqjPiBG0xpS5-105" value="" style="endArrow=none;dashed=1;html=1;rounded=0;" parent="1" edge="1">
          <mxGeometry width="50" height="50" relative="1" as="geometry">
            <mxPoint x="754" y="1020" as="sourcePoint" />
            <mxPoint x="754" y="880" as="targetPoint" />
          </mxGeometry>
        </mxCell>
        <mxCell id="b5fJu4_bDqjPiBG0xpS5-106" value="" style="endArrow=none;dashed=1;html=1;rounded=0;" parent="1" edge="1">
          <mxGeometry width="50" height="50" relative="1" as="geometry">
            <mxPoint x="590" y="1020" as="sourcePoint" />
            <mxPoint x="760" y="1020" as="targetPoint" />
          </mxGeometry>
        </mxCell>
        <mxCell id="b5fJu4_bDqjPiBG0xpS5-113" value="" style="endArrow=none;dashed=1;html=1;rounded=0;" parent="1" edge="1">
          <mxGeometry width="50" height="50" relative="1" as="geometry">
            <mxPoint x="585" y="880" as="sourcePoint" />
            <mxPoint x="755" y="880" as="targetPoint" />
          </mxGeometry>
        </mxCell>
        <mxCell id="b5fJu4_bDqjPiBG0xpS5-116" value="" style="endArrow=classic;html=1;rounded=0;entryX=1;entryY=0.5;entryDx=0;entryDy=0;" parent="1" target="b5fJu4_bDqjPiBG0xpS5-61" edge="1">
          <mxGeometry width="50" height="50" relative="1" as="geometry">
            <mxPoint x="590" y="1000" as="sourcePoint" />
            <mxPoint x="500" y="1020" as="targetPoint" />
          </mxGeometry>
        </mxCell>
        <mxCell id="b5fJu4_bDqjPiBG0xpS5-117" value="IMDB Retriever" style="text;html=1;align=center;verticalAlign=middle;whiteSpace=wrap;rounded=0;" parent="1" vertex="1">
          <mxGeometry x="370" y="610" width="160" height="30" as="geometry" />
        </mxCell>
        <mxCell id="GMUEu0to6hQy2x6zHPS_-2" value="" style="endArrow=classic;html=1;rounded=0;entryX=0.967;entryY=0.3;entryDx=0;entryDy=0;entryPerimeter=0;" edge="1" parent="1" target="b5fJu4_bDqjPiBG0xpS5-59">
          <mxGeometry width="50" height="50" relative="1" as="geometry">
            <mxPoint x="690" y="880" as="sourcePoint" />
            <mxPoint x="610" y="690" as="targetPoint" />
            <Array as="points">
              <mxPoint x="690" y="690" />
            </Array>
          </mxGeometry>
        </mxCell>
      </root>
    </mxGraphModel>
  </diagram>
</mxfile>
